G04*
G04 #@! TF.GenerationSoftware,Altium Limited,Altium Designer,21.2.0 (30)*
G04*
G04 Layer_Color=8388736*
%FSLAX25Y25*%
%MOIN*%
G70*
G04*
G04 #@! TF.SameCoordinates,97C633C7-0035-430A-B59B-8A352E4D0A73*
G04*
G04*
G04 #@! TF.FilePolarity,Negative*
G04*
G01*
G75*
%ADD23R,0.00473X0.01744*%
%ADD24R,0.01744X0.00473*%
%ADD25R,0.02769X0.03162*%
%ADD26R,0.03162X0.02769*%
G04:AMPARAMS|DCode=27|XSize=37.13mil|YSize=19.02mil|CornerRadius=5.38mil|HoleSize=0mil|Usage=FLASHONLY|Rotation=0.000|XOffset=0mil|YOffset=0mil|HoleType=Round|Shape=RoundedRectangle|*
%AMROUNDEDRECTD27*
21,1,0.03713,0.00827,0,0,0.0*
21,1,0.02638,0.01902,0,0,0.0*
1,1,0.01076,0.01319,-0.00413*
1,1,0.01076,-0.01319,-0.00413*
1,1,0.01076,-0.01319,0.00413*
1,1,0.01076,0.01319,0.00413*
%
%ADD27ROUNDEDRECTD27*%
%ADD28R,0.04343X0.07099*%
G04:AMPARAMS|DCode=29|XSize=55.64mil|YSize=30.84mil|CornerRadius=6.85mil|HoleSize=0mil|Usage=FLASHONLY|Rotation=270.000|XOffset=0mil|YOffset=0mil|HoleType=Round|Shape=RoundedRectangle|*
%AMROUNDEDRECTD29*
21,1,0.05564,0.01713,0,0,270.0*
21,1,0.04193,0.03084,0,0,270.0*
1,1,0.01371,-0.00856,-0.02097*
1,1,0.01371,-0.00856,0.02097*
1,1,0.01371,0.00856,0.02097*
1,1,0.01371,0.00856,-0.02097*
%
%ADD29ROUNDEDRECTD29*%
%ADD30C,0.06299*%
%ADD31R,0.03556X0.03162*%
%ADD32R,0.03162X0.03556*%
%ADD33R,0.04737X0.05524*%
%ADD34R,0.06115X0.02375*%
%ADD35R,0.08280X0.08280*%
%ADD36C,0.01575*%
%ADD37C,0.03359*%
%ADD38C,0.04816*%
%ADD39C,0.03162*%
D23*
X53665Y35060D02*
D03*
X54989Y35043D02*
D03*
X32019Y36217D02*
D03*
X33343Y36200D02*
D03*
D24*
X29114Y28075D02*
D03*
X29131Y29398D02*
D03*
D25*
X56496Y35039D02*
D03*
X52165D02*
D03*
X34843Y36220D02*
D03*
X30512D02*
D03*
D26*
X29134Y30906D02*
D03*
Y26575D02*
D03*
D27*
X43957Y48917D02*
D03*
Y46949D02*
D03*
Y44980D02*
D03*
Y43012D02*
D03*
X51713D02*
D03*
Y44980D02*
D03*
Y46949D02*
D03*
Y48917D02*
D03*
D28*
X47835Y45965D02*
D03*
D29*
X49508Y13858D02*
D03*
X53248D02*
D03*
X56988D02*
D03*
X49508Y23740D02*
D03*
X53248D02*
D03*
X56988D02*
D03*
D30*
X77008Y56260D02*
D03*
X87008D02*
D03*
X77008Y6260D02*
D03*
X87008D02*
D03*
D31*
X39092Y47720D02*
D03*
Y43783D02*
D03*
X56415Y48902D02*
D03*
Y44965D02*
D03*
X60352Y48902D02*
D03*
Y44965D02*
D03*
X27559Y45276D02*
D03*
Y41339D02*
D03*
D32*
X54724Y28642D02*
D03*
X58661D02*
D03*
X51870D02*
D03*
X47933D02*
D03*
X57087Y8563D02*
D03*
X53150D02*
D03*
D33*
X16733Y17322D02*
D03*
Y44881D02*
D03*
D34*
X18406Y36220D02*
D03*
Y33661D02*
D03*
Y31102D02*
D03*
Y28543D02*
D03*
Y25984D02*
D03*
D35*
X7874Y46653D02*
D03*
Y15551D02*
D03*
Y35826D02*
D03*
Y26378D02*
D03*
D36*
X47835Y48130D02*
D03*
Y43799D02*
D03*
D37*
X16339Y38976D02*
D03*
Y23228D02*
D03*
D38*
X77008Y56260D02*
D03*
X87008D02*
D03*
X77008Y6260D02*
D03*
X87008D02*
D03*
D39*
X61024Y40157D02*
D03*
X42913Y36220D02*
D03*
M02*
