G04*
G04 #@! TF.GenerationSoftware,Altium Limited,Altium Designer,21.2.0 (30)*
G04*
G04 Layer_Physical_Order=1*
G04 Layer_Color=255*
%FSLAX25Y25*%
%MOIN*%
G70*
G04*
G04 #@! TF.SameCoordinates,97C633C7-0035-430A-B59B-8A352E4D0A73*
G04*
G04*
G04 #@! TF.FilePolarity,Positive*
G04*
G01*
G75*
%ADD10C,0.00787*%
%ADD13R,0.01968X0.02362*%
%ADD14R,0.02362X0.01968*%
G04:AMPARAMS|DCode=15|XSize=29.13mil|YSize=11.02mil|CornerRadius=1.38mil|HoleSize=0mil|Usage=FLASHONLY|Rotation=0.000|XOffset=0mil|YOffset=0mil|HoleType=Round|Shape=RoundedRectangle|*
%AMROUNDEDRECTD15*
21,1,0.02913,0.00827,0,0,0.0*
21,1,0.02638,0.01102,0,0,0.0*
1,1,0.00276,0.01319,-0.00413*
1,1,0.00276,-0.01319,-0.00413*
1,1,0.00276,-0.01319,0.00413*
1,1,0.00276,0.01319,0.00413*
%
%ADD15ROUNDEDRECTD15*%
G04:AMPARAMS|DCode=16|XSize=47.64mil|YSize=22.84mil|CornerRadius=2.85mil|HoleSize=0mil|Usage=FLASHONLY|Rotation=270.000|XOffset=0mil|YOffset=0mil|HoleType=Round|Shape=RoundedRectangle|*
%AMROUNDEDRECTD16*
21,1,0.04764,0.01713,0,0,270.0*
21,1,0.04193,0.02284,0,0,270.0*
1,1,0.00571,-0.00856,-0.02097*
1,1,0.00571,-0.00856,0.02097*
1,1,0.00571,0.00856,0.02097*
1,1,0.00571,0.00856,-0.02097*
%
%ADD16ROUNDEDRECTD16*%
%ADD17C,0.05906*%
%ADD18R,0.02756X0.02362*%
%ADD19R,0.02362X0.02756*%
%ADD20R,0.03937X0.04724*%
%ADD21R,0.05315X0.01575*%
%ADD22R,0.07480X0.07480*%
%ADD36C,0.01575*%
%ADD40R,0.03543X0.06299*%
%ADD41C,0.01968*%
%ADD42C,0.01102*%
%ADD43C,0.02284*%
%ADD44C,0.01500*%
%ADD45R,0.00591X0.01575*%
%ADD46R,0.00591X0.02362*%
%ADD47R,0.01575X0.00591*%
%ADD48R,0.02362X0.00591*%
%ADD49C,0.02559*%
%ADD50C,0.04016*%
%ADD51C,0.02362*%
G36*
X98425Y-0D02*
X0D01*
Y62008D01*
X98425D01*
Y-0D01*
D02*
G37*
%LPC*%
G36*
X87528Y60213D02*
X87508D01*
Y56760D01*
X90961D01*
Y56780D01*
X90691Y57785D01*
X90171Y58687D01*
X89435Y59423D01*
X88534Y59943D01*
X87528Y60213D01*
D02*
G37*
G36*
X86508D02*
X86488D01*
X85482Y59943D01*
X84581Y59423D01*
X83845Y58687D01*
X83324Y57785D01*
X83055Y56780D01*
Y56760D01*
X86508D01*
Y60213D01*
D02*
G37*
G36*
X77474Y59803D02*
X76541D01*
X75640Y59562D01*
X74832Y59095D01*
X74173Y58435D01*
X73706Y57627D01*
X73465Y56726D01*
Y55793D01*
X73706Y54892D01*
X73811Y54710D01*
X65230Y46129D01*
X63202D01*
X62730Y46720D01*
Y48401D01*
X60352D01*
Y48902D01*
X59852D01*
Y51083D01*
X56915D01*
Y48902D01*
X55915D01*
Y51083D01*
X54037D01*
Y50974D01*
X53873Y50808D01*
X53250Y50447D01*
X53031Y50491D01*
X52213D01*
Y48917D01*
X51713D01*
Y48417D01*
X49251D01*
X49322Y48060D01*
X49573Y47684D01*
X49698Y47600D01*
X49651Y47362D01*
Y46535D01*
X49708Y46251D01*
X49869Y46010D01*
Y45919D01*
X49708Y45678D01*
X49651Y45394D01*
Y44567D01*
X49708Y44283D01*
X49846Y43996D01*
X49708Y43709D01*
X49651Y43425D01*
Y42598D01*
X49708Y42314D01*
X49869Y42073D01*
X50053Y41950D01*
X50129Y41812D01*
X50270Y41089D01*
X46565Y37385D01*
X44255D01*
X43917Y37722D01*
X43266Y37992D01*
X42561D01*
X41910Y37722D01*
X41572Y37385D01*
X39961D01*
X39660Y38112D01*
X43396Y41848D01*
X43957D01*
X43997Y41856D01*
X45276D01*
X45560Y41912D01*
X45801Y42073D01*
X45962Y42314D01*
X46018Y42598D01*
Y43425D01*
X45962Y43709D01*
X45823Y43996D01*
X45962Y44283D01*
X46018Y44567D01*
Y45394D01*
X45962Y45678D01*
X45801Y45919D01*
Y46010D01*
X45962Y46251D01*
X46018Y46535D01*
Y47362D01*
X45962Y47646D01*
X45823Y47933D01*
X45962Y48220D01*
X46018Y48504D01*
Y49331D01*
X45962Y49615D01*
X45801Y49856D01*
X45560Y50017D01*
X45276Y50073D01*
X44166D01*
X44127Y50268D01*
X43874Y50646D01*
X42516Y52004D01*
X42138Y52257D01*
X41693Y52345D01*
X37008D01*
X36562Y52257D01*
X36185Y52004D01*
X34019Y49839D01*
X33767Y49461D01*
X33678Y49016D01*
Y38041D01*
X33563D01*
X33446Y37992D01*
X33268D01*
Y37992D01*
X32496Y37882D01*
X32087Y37992D01*
D01*
X31791Y38041D01*
X31201D01*
X31083Y37992D01*
X28937D01*
X28723Y38691D01*
Y39567D01*
X29528D01*
Y43095D01*
X29937D01*
Y44776D01*
X27559D01*
X25181D01*
Y43095D01*
X25591D01*
Y39567D01*
X26395D01*
Y37384D01*
X21654D01*
Y37598D01*
X18634D01*
X18119Y38385D01*
X18209Y38604D01*
Y39348D01*
X17924Y40035D01*
X17398Y40561D01*
X16986Y40732D01*
X17143Y41519D01*
X19701D01*
Y44381D01*
X13764D01*
Y41519D01*
X15535D01*
X15691Y40732D01*
X15280Y40561D01*
X14754Y40035D01*
X14469Y39348D01*
Y38604D01*
X14754Y37917D01*
X15158Y37512D01*
Y34842D01*
Y32283D01*
Y27771D01*
X14749D01*
Y26484D01*
X22063D01*
Y27771D01*
X21654D01*
Y32283D01*
Y35056D01*
X28501D01*
X28937Y34449D01*
X28593Y33783D01*
X28531Y33721D01*
X28279Y33343D01*
X28190Y32898D01*
Y32480D01*
X27362D01*
Y30334D01*
X27314Y30217D01*
Y29626D01*
X27362Y29509D01*
Y29331D01*
X27362D01*
X27473Y28558D01*
X27362Y28150D01*
D01*
X27314Y27854D01*
Y27264D01*
X27362Y27147D01*
Y25000D01*
X30906D01*
Y25208D01*
X37205D01*
X37728Y25312D01*
X38171Y25608D01*
X39838Y27275D01*
X46161D01*
Y26673D01*
X46771D01*
X47758Y25490D01*
Y21644D01*
X47826Y21302D01*
X48020Y21012D01*
X48141Y20931D01*
Y16667D01*
X48020Y16586D01*
X47826Y16296D01*
X47758Y15955D01*
Y11762D01*
X47826Y11420D01*
X48020Y11130D01*
X48141Y11049D01*
Y3831D01*
X48245Y3308D01*
X48541Y2865D01*
X49420Y1986D01*
X49863Y1690D01*
X50387Y1586D01*
X73701D01*
X74224Y1690D01*
X74667Y1986D01*
X75639Y2958D01*
X75640Y2958D01*
X76541Y2716D01*
X77474D01*
X78376Y2958D01*
X79184Y3424D01*
X79843Y4084D01*
X80310Y4892D01*
X80551Y5793D01*
Y6726D01*
X80310Y7627D01*
X79843Y8435D01*
X79184Y9095D01*
X78376Y9562D01*
X77474Y9803D01*
X76541D01*
X75640Y9562D01*
X74832Y9095D01*
X74173Y8435D01*
X73706Y7627D01*
X73465Y6726D01*
Y5793D01*
X73706Y4892D01*
X73707Y4891D01*
X73135Y4320D01*
X50953D01*
X50875Y4398D01*
Y6016D01*
X51378Y6594D01*
X54921D01*
Y6594D01*
X55315D01*
Y6594D01*
X58858D01*
Y10531D01*
X58594D01*
Y11307D01*
X58670Y11420D01*
X58738Y11762D01*
Y15955D01*
X58670Y16296D01*
X58476Y16586D01*
X58186Y16780D01*
X57845Y16848D01*
X56132D01*
X55790Y16780D01*
X55743Y16748D01*
X54494D01*
X54446Y16780D01*
X54104Y16848D01*
X52392D01*
X52050Y16780D01*
X52003Y16748D01*
X50875D01*
Y20471D01*
X51232Y21060D01*
X51294Y21151D01*
X52111D01*
X52563Y21339D01*
X52751Y21790D01*
Y25695D01*
X53119Y25846D01*
X53844Y25297D01*
X53805Y21838D01*
X53807Y21835D01*
X53805Y21831D01*
X53898Y21607D01*
X53987Y21384D01*
X53991Y21383D01*
X53992Y21379D01*
X54214Y21287D01*
X54437Y21192D01*
X54441Y21193D01*
X54444Y21192D01*
X55261D01*
X55354Y21231D01*
X55500Y21012D01*
X55790Y20819D01*
X56132Y20751D01*
X57845D01*
X58186Y20819D01*
X58476Y21012D01*
X58670Y21302D01*
X58738Y21644D01*
Y25482D01*
X59770Y26673D01*
X60433D01*
Y27275D01*
X73902D01*
X85641Y15536D01*
Y9562D01*
X85640Y9562D01*
X84832Y9095D01*
X84172Y8435D01*
X83706Y7627D01*
X83465Y6726D01*
Y5793D01*
X83706Y4892D01*
X84172Y4084D01*
X84832Y3424D01*
X85640Y2958D01*
X86541Y2716D01*
X87474D01*
X88376Y2958D01*
X89183Y3424D01*
X89843Y4084D01*
X90310Y4892D01*
X90551Y5793D01*
Y6726D01*
X90310Y7627D01*
X89843Y8435D01*
X89183Y9095D01*
X88376Y9562D01*
X88375Y9562D01*
Y16102D01*
X88271Y16625D01*
X87974Y17069D01*
X75435Y29608D01*
X74992Y29904D01*
X74468Y30009D01*
X60433D01*
Y30610D01*
X56906D01*
Y31020D01*
X55224D01*
Y28642D01*
X54224D01*
Y31020D01*
X52370D01*
Y28642D01*
X51370D01*
Y31020D01*
X49689D01*
X49300Y31646D01*
Y32013D01*
X50023Y32736D01*
X50591Y33268D01*
X52737D01*
X52855Y33219D01*
X53445D01*
X53562Y33268D01*
X53740D01*
Y33268D01*
X54513Y33378D01*
X54921Y33268D01*
D01*
X55216Y33219D01*
X55807D01*
X55924Y33268D01*
X58071D01*
Y35754D01*
X58093Y35866D01*
X58071Y35979D01*
Y36811D01*
X57579D01*
Y42636D01*
X58136Y43193D01*
X58383D01*
Y43193D01*
X58384D01*
Y43193D01*
X59188D01*
Y41170D01*
X59276Y40725D01*
X59316Y40665D01*
X59252Y40510D01*
Y39805D01*
X59522Y39154D01*
X60020Y38655D01*
X60671Y38386D01*
X61376D01*
X62027Y38655D01*
X62525Y39154D01*
X62795Y39805D01*
Y40510D01*
X62525Y41161D01*
X62027Y41659D01*
X61516Y41871D01*
Y43193D01*
X62321D01*
Y43800D01*
X65713D01*
X66158Y43889D01*
X66536Y44141D01*
X75458Y53063D01*
X75640Y52958D01*
X76541Y52716D01*
X77474D01*
X78376Y52958D01*
X79184Y53425D01*
X79843Y54084D01*
X80310Y54892D01*
X80551Y55793D01*
Y56726D01*
X80310Y57627D01*
X79843Y58435D01*
X79184Y59095D01*
X78376Y59562D01*
X77474Y59803D01*
D02*
G37*
G36*
X90961Y55760D02*
X87508D01*
Y52307D01*
X87528D01*
X88534Y52576D01*
X89435Y53097D01*
X90171Y53833D01*
X90691Y54734D01*
X90961Y55739D01*
Y55760D01*
D02*
G37*
G36*
X86508D02*
X83055D01*
Y55739D01*
X83324Y54734D01*
X83845Y53833D01*
X84581Y53097D01*
X85482Y52576D01*
X86488Y52307D01*
X86508D01*
Y55760D01*
D02*
G37*
G36*
X51213Y50491D02*
X50394D01*
X49950Y50402D01*
X49573Y50151D01*
X49322Y49775D01*
X49251Y49417D01*
X51213D01*
Y50491D01*
D02*
G37*
G36*
X62730Y51083D02*
X60852D01*
Y49402D01*
X62730D01*
Y51083D01*
D02*
G37*
G36*
X12614Y51393D02*
X8374D01*
Y47153D01*
X12614D01*
Y51393D01*
D02*
G37*
G36*
X7374D02*
X3134D01*
Y47153D01*
X7374D01*
Y51393D01*
D02*
G37*
G36*
X29937Y47457D02*
X28059D01*
Y45776D01*
X29937D01*
Y47457D01*
D02*
G37*
G36*
X27059D02*
X25181D01*
Y45776D01*
X27059D01*
Y47457D01*
D02*
G37*
G36*
X19701Y48244D02*
X17233D01*
Y45382D01*
X19701D01*
Y48244D01*
D02*
G37*
G36*
X16233D02*
X13764D01*
Y45382D01*
X16233D01*
Y48244D01*
D02*
G37*
G36*
X12614Y46153D02*
X8374D01*
Y41913D01*
X12614D01*
Y46153D01*
D02*
G37*
G36*
X7374D02*
X3134D01*
Y41913D01*
X7374D01*
Y46153D01*
D02*
G37*
G36*
X12614Y40566D02*
X8374D01*
Y36326D01*
X12614D01*
Y40566D01*
D02*
G37*
G36*
X7374D02*
X3134D01*
Y36326D01*
X7374D01*
Y40566D01*
D02*
G37*
G36*
X12614Y35326D02*
X3134D01*
Y31086D01*
Y26878D01*
X12614D01*
Y31086D01*
Y35326D01*
D02*
G37*
G36*
Y25878D02*
X8374D01*
Y21638D01*
X12614D01*
Y25878D01*
D02*
G37*
G36*
X7374D02*
X3134D01*
Y21638D01*
X7374D01*
Y25878D01*
D02*
G37*
G36*
X22063Y25484D02*
X14749D01*
Y24275D01*
X14469Y23600D01*
Y22856D01*
X14754Y22169D01*
X15280Y21643D01*
X15691Y21472D01*
X15535Y20685D01*
X13764D01*
Y17822D01*
X19701D01*
Y20685D01*
X17143D01*
X16986Y21472D01*
X17398Y21643D01*
X17924Y22169D01*
X18209Y22856D01*
Y23600D01*
X18608Y24196D01*
X22063D01*
Y25484D01*
D02*
G37*
G36*
X12614Y20291D02*
X8374D01*
Y16051D01*
X12614D01*
Y20291D01*
D02*
G37*
G36*
X7374D02*
X3134D01*
Y16051D01*
X7374D01*
Y20291D01*
D02*
G37*
G36*
X19701Y16822D02*
X17233D01*
Y13960D01*
X19701D01*
Y16822D01*
D02*
G37*
G36*
X16233D02*
X13764D01*
Y13960D01*
X16233D01*
Y16822D01*
D02*
G37*
G36*
X12614Y15051D02*
X8374D01*
Y10811D01*
X12614D01*
Y15051D01*
D02*
G37*
G36*
X7374D02*
X3134D01*
Y10811D01*
X7374D01*
Y15051D01*
D02*
G37*
%LPD*%
G36*
X61533Y43980D02*
X59466D01*
Y46429D01*
Y47130D01*
X61533D01*
Y43980D01*
D02*
G37*
G36*
X48917Y27899D02*
X50591Y25922D01*
X50591Y22047D01*
X48425Y22047D01*
X48425Y25689D01*
X46949Y27457D01*
X46949Y29823D01*
X48917Y29823D01*
X48917Y27899D01*
D02*
G37*
G36*
X59646Y27506D02*
X58071Y25689D01*
Y21752D01*
X55905Y21752D01*
X55905Y25984D01*
X57677Y27756D01*
Y29823D01*
X59646D01*
Y27506D01*
D02*
G37*
D10*
X51713Y46949D02*
X60532D01*
D13*
X56496Y35039D02*
D03*
X52165D02*
D03*
X34843Y36220D02*
D03*
X30512D02*
D03*
D14*
X29134Y30906D02*
D03*
Y26575D02*
D03*
D15*
X43957Y48917D02*
D03*
Y46949D02*
D03*
Y44980D02*
D03*
Y43012D02*
D03*
X51713D02*
D03*
Y44980D02*
D03*
Y46949D02*
D03*
Y48917D02*
D03*
D16*
X49508Y13858D02*
D03*
X53248D02*
D03*
X56988D02*
D03*
X49508Y23740D02*
D03*
X53248D02*
D03*
X56988D02*
D03*
D17*
X77008Y56260D02*
D03*
X87008D02*
D03*
X77008Y6260D02*
D03*
X87008D02*
D03*
D18*
X39092Y47720D02*
D03*
Y43783D02*
D03*
X56415Y48902D02*
D03*
Y44965D02*
D03*
X60352Y48902D02*
D03*
Y44965D02*
D03*
X27559Y45276D02*
D03*
Y41339D02*
D03*
D19*
X54724Y28642D02*
D03*
X58661D02*
D03*
X51870D02*
D03*
X47933D02*
D03*
X57087Y8563D02*
D03*
X53150D02*
D03*
D20*
X16733Y17322D02*
D03*
Y44881D02*
D03*
D21*
X18406Y36220D02*
D03*
Y33661D02*
D03*
Y31102D02*
D03*
Y28543D02*
D03*
Y25984D02*
D03*
D22*
X7874Y46653D02*
D03*
Y15551D02*
D03*
Y35826D02*
D03*
Y26378D02*
D03*
D36*
X47835Y48130D02*
D03*
Y43799D02*
D03*
X58071Y18504D02*
D03*
X45276Y51968D02*
D03*
X50754Y51982D02*
D03*
X47835Y51835D02*
D03*
X44541Y40674D02*
D03*
X47753Y40645D02*
D03*
X55118Y18504D02*
D03*
X52165D02*
D03*
D40*
X47835Y45965D02*
D03*
D41*
X51870Y28642D02*
X53248D01*
X54724D01*
X47835Y48130D02*
Y51835D01*
X53248Y8760D02*
Y13858D01*
X56988Y8563D02*
Y13858D01*
D42*
X30488Y36197D02*
X30511Y36220D01*
X29354Y31126D02*
Y32898D01*
X29134Y30906D02*
X29354Y31126D01*
Y32898D02*
X30488Y34032D01*
Y36197D01*
X56415Y48902D02*
X60352D01*
X34843Y49016D02*
X37008Y51181D01*
X34843Y36220D02*
Y49016D01*
Y36220D02*
X34843Y36220D01*
X36122D01*
X27559Y36220D02*
X30511D01*
X30512Y36220D01*
X18406Y36220D02*
X27559D01*
Y41339D01*
X60352Y44965D02*
X65713D01*
X77008Y56260D01*
X15315Y46653D02*
X16733Y45236D01*
Y44881D02*
Y45236D01*
Y16968D02*
Y17322D01*
X15315Y15551D02*
X16733Y16968D01*
X7874Y15551D02*
Y26378D01*
Y35826D01*
Y46653D01*
X42913Y36220D02*
X47047D01*
X36122D02*
X42913D01*
X60352Y41170D02*
Y44965D01*
Y41170D02*
X61024Y40498D01*
Y40157D02*
Y40498D01*
X56496Y35433D02*
X56929Y35866D01*
X56496Y35039D02*
Y35433D01*
X36122Y36220D02*
X42913Y43012D01*
X47047Y36220D02*
X51713Y40886D01*
X56415Y36139D02*
Y44965D01*
X51713Y44980D02*
X56399D01*
X56415Y44965D01*
X28937Y31102D02*
X29035Y31004D01*
X51713Y40886D02*
Y43012D01*
X43051Y48917D02*
Y49823D01*
X37008Y51181D02*
X41693D01*
X43051Y48917D02*
X43957D01*
X41693Y51181D02*
X43051Y49823D01*
X42913Y43012D02*
X43957D01*
X51713Y48917D02*
X56399D01*
X39092Y47622D02*
X39289D01*
X39962Y46949D02*
X43957D01*
X39289Y47622D02*
X39962Y46949D01*
X39289Y43685D02*
X40584Y44980D01*
X43957D01*
X39092Y43685D02*
X39289D01*
D43*
X53248Y23740D02*
Y28642D01*
D44*
X73701Y2953D02*
X77008Y6260D01*
X87008D02*
Y16102D01*
X49508Y3831D02*
Y13858D01*
X50387Y2953D02*
X73701D01*
X49508Y3831D02*
X50387Y2953D01*
X58661Y28642D02*
X74468D01*
X37205Y26575D02*
X39272Y28642D01*
X47933D01*
Y32579D01*
X50007Y34653D01*
X51931D01*
X52165Y34887D02*
Y35039D01*
X51931Y34653D02*
X52165Y34887D01*
X74468Y28642D02*
X87008Y16102D01*
X29134Y26575D02*
X37205D01*
X49508Y13858D02*
Y23740D01*
X56399Y48917D02*
X56415Y48902D01*
X53051Y8563D02*
X53248Y8760D01*
X56988Y8563D02*
X56988Y8563D01*
D45*
X55118Y35039D02*
D03*
X53543D02*
D03*
X33465Y36220D02*
D03*
X31890D02*
D03*
D46*
X55512Y35039D02*
D03*
X53150D02*
D03*
X33858Y36220D02*
D03*
X31496D02*
D03*
D47*
X29134Y29528D02*
D03*
X29134Y27953D02*
D03*
D48*
X29134Y29921D02*
D03*
X29134Y27559D02*
D03*
D49*
X16339Y38976D02*
D03*
Y23228D02*
D03*
D50*
X77008Y56260D02*
D03*
X87008D02*
D03*
X77008Y6260D02*
D03*
X87008D02*
D03*
D51*
X61024Y40157D02*
D03*
X42913Y36220D02*
D03*
M02*
