G04*
G04 #@! TF.GenerationSoftware,Altium Limited,Altium Designer,21.2.0 (30)*
G04*
G04 Layer_Physical_Order=2*
G04 Layer_Color=16711680*
%FSLAX25Y25*%
%MOIN*%
G70*
G04*
G04 #@! TF.SameCoordinates,97C633C7-0035-430A-B59B-8A352E4D0A73*
G04*
G04*
G04 #@! TF.FilePolarity,Positive*
G04*
G01*
G75*
%ADD17C,0.05906*%
%ADD36C,0.01575*%
%ADD42C,0.01102*%
%ADD49C,0.02559*%
%ADD50C,0.04016*%
%ADD51C,0.02362*%
G36*
X98425Y-0D02*
X0D01*
Y62008D01*
X98425D01*
Y-0D01*
D02*
G37*
%LPC*%
G36*
X87528Y60213D02*
X87508D01*
Y56760D01*
X90961D01*
Y56780D01*
X90691Y57785D01*
X90171Y58687D01*
X89435Y59423D01*
X88534Y59943D01*
X87528Y60213D01*
D02*
G37*
G36*
X86508D02*
X86488D01*
X85482Y59943D01*
X84581Y59423D01*
X83845Y58687D01*
X83324Y57785D01*
X83055Y56780D01*
Y56760D01*
X86508D01*
Y60213D01*
D02*
G37*
G36*
X77474Y59803D02*
X76541D01*
X75640Y59562D01*
X74832Y59095D01*
X74173Y58435D01*
X73706Y57627D01*
X73465Y56726D01*
Y55793D01*
X73706Y54892D01*
X74173Y54084D01*
X74832Y53425D01*
X75640Y52958D01*
X76541Y52716D01*
X77474D01*
X78376Y52958D01*
X79184Y53425D01*
X79843Y54084D01*
X80310Y54892D01*
X80551Y55793D01*
Y56726D01*
X80310Y57627D01*
X79843Y58435D01*
X79184Y59095D01*
X78376Y59562D01*
X77474Y59803D01*
D02*
G37*
G36*
X90961Y55760D02*
X87508D01*
Y52307D01*
X87528D01*
X88534Y52576D01*
X89435Y53097D01*
X90171Y53833D01*
X90691Y54734D01*
X90961Y55739D01*
Y55760D01*
D02*
G37*
G36*
X86508D02*
X83055D01*
Y55739D01*
X83324Y54734D01*
X83845Y53833D01*
X84581Y53097D01*
X85482Y52576D01*
X86488Y52307D01*
X86508D01*
Y55760D01*
D02*
G37*
G36*
X61376Y41929D02*
X60671D01*
X60020Y41659D01*
X59522Y41161D01*
X59252Y40510D01*
Y40032D01*
X56604Y37385D01*
X44255D01*
X43917Y37722D01*
X43266Y37992D01*
X42561D01*
X41910Y37722D01*
X41412Y37224D01*
X41142Y36573D01*
Y35868D01*
X41412Y35217D01*
X41910Y34718D01*
X42561Y34449D01*
X43266D01*
X43917Y34718D01*
X44255Y35056D01*
X57087D01*
X57532Y35145D01*
X57910Y35397D01*
X60898Y38386D01*
X61376D01*
X62027Y38655D01*
X62525Y39154D01*
X62795Y39805D01*
Y40510D01*
X62525Y41161D01*
X62027Y41659D01*
X61376Y41929D01*
D02*
G37*
G36*
X16711Y40846D02*
X15967D01*
X15280Y40561D01*
X14754Y40035D01*
X14469Y39348D01*
Y38604D01*
X14754Y37917D01*
X15280Y37391D01*
X15967Y37106D01*
X16711D01*
X17398Y37391D01*
X17924Y37917D01*
X18209Y38604D01*
Y39348D01*
X17924Y40035D01*
X17398Y40561D01*
X16711Y40846D01*
D02*
G37*
G36*
Y25098D02*
X15967D01*
X15280Y24813D01*
X14754Y24287D01*
X14469Y23600D01*
Y22856D01*
X14754Y22169D01*
X15280Y21643D01*
X15967Y21358D01*
X16711D01*
X17398Y21643D01*
X17924Y22169D01*
X18209Y22856D01*
Y23600D01*
X17924Y24287D01*
X17398Y24813D01*
X16711Y25098D01*
D02*
G37*
G36*
X87474Y9803D02*
X86541D01*
X85640Y9562D01*
X84832Y9095D01*
X84172Y8435D01*
X83706Y7627D01*
X83465Y6726D01*
Y5793D01*
X83706Y4892D01*
X84172Y4084D01*
X84832Y3424D01*
X85640Y2958D01*
X86541Y2716D01*
X87474D01*
X88376Y2958D01*
X89183Y3424D01*
X89843Y4084D01*
X90310Y4892D01*
X90551Y5793D01*
Y6726D01*
X90310Y7627D01*
X89843Y8435D01*
X89183Y9095D01*
X88376Y9562D01*
X87474Y9803D01*
D02*
G37*
G36*
X77474D02*
X76541D01*
X75640Y9562D01*
X74832Y9095D01*
X74173Y8435D01*
X73706Y7627D01*
X73465Y6726D01*
Y5793D01*
X73706Y4892D01*
X74173Y4084D01*
X74832Y3424D01*
X75640Y2958D01*
X76541Y2716D01*
X77474D01*
X78376Y2958D01*
X79184Y3424D01*
X79843Y4084D01*
X80310Y4892D01*
X80551Y5793D01*
Y6726D01*
X80310Y7627D01*
X79843Y8435D01*
X79184Y9095D01*
X78376Y9562D01*
X77474Y9803D01*
D02*
G37*
%LPD*%
D17*
X77008Y56260D02*
D03*
X87008D02*
D03*
X77008Y6260D02*
D03*
X87008D02*
D03*
D36*
X47835Y48130D02*
D03*
Y43799D02*
D03*
X58071Y18504D02*
D03*
X45276Y51968D02*
D03*
X50754Y51982D02*
D03*
X47835Y51835D02*
D03*
X44541Y40674D02*
D03*
X47753Y40645D02*
D03*
X55118Y18504D02*
D03*
X52165D02*
D03*
D42*
X57087Y36220D02*
X61024Y40157D01*
X42913Y36220D02*
X57087D01*
D49*
X16339Y38976D02*
D03*
Y23228D02*
D03*
D50*
X77008Y56260D02*
D03*
X87008D02*
D03*
X77008Y6260D02*
D03*
X87008D02*
D03*
D51*
X61024Y40157D02*
D03*
X42913Y36220D02*
D03*
M02*
