G04*
G04 #@! TF.GenerationSoftware,Altium Limited,Altium Designer,21.2.0 (30)*
G04*
G04 Layer_Color=65535*
%FSLAX25Y25*%
%MOIN*%
G70*
G04*
G04 #@! TF.SameCoordinates,97C633C7-0035-430A-B59B-8A352E4D0A73*
G04*
G04*
G04 #@! TF.FilePolarity,Positive*
G04*
G01*
G75*
%ADD10C,0.00787*%
%ADD11C,0.00500*%
%ADD12C,0.01000*%
D10*
X40585Y50077D02*
X39797D01*
X40585D01*
X60532Y25689D02*
X59744D01*
X60532D01*
X72756Y61181D02*
X91772D01*
X72756Y51339D02*
Y61181D01*
Y51339D02*
X91772D01*
Y61181D01*
X72756Y11181D02*
X91772D01*
X72756Y1339D02*
Y11181D01*
Y1339D02*
X91772D01*
Y11181D01*
D11*
X43898Y50728D02*
X51772D01*
X43898Y41201D02*
X51772D01*
X47106Y15650D02*
Y21949D01*
X59390Y15650D02*
Y21949D01*
D12*
X27297Y50656D02*
X26772Y50132D01*
Y49082D01*
X27297Y48557D01*
X29396D01*
X29921Y49082D01*
Y50132D01*
X29396Y50656D01*
X26772Y51706D02*
Y53805D01*
X27297D01*
X29396Y51706D01*
X29921D01*
X4150Y4674D02*
X5199Y2575D01*
X6249Y4674D01*
X7298Y2575D02*
X8348D01*
X7823D01*
Y5723D01*
X7298Y5199D01*
X9922Y2575D02*
Y3100D01*
X10447D01*
Y2575D01*
X9922D01*
X12546Y5199D02*
X13071Y5723D01*
X14120D01*
X14645Y5199D01*
Y3100D01*
X14120Y2575D01*
X13071D01*
X12546Y3100D01*
Y5199D01*
X76757Y13795D02*
Y16419D01*
X75445Y15107D02*
X78068D01*
X74789Y20355D02*
Y17731D01*
X76757D01*
X76101Y19043D01*
Y19699D01*
X76757Y20355D01*
X78068D01*
X78724Y19699D01*
Y18387D01*
X78068Y17731D01*
X74789Y21667D02*
X77412D01*
X78724Y22979D01*
X77412Y24291D01*
X74789D01*
X86599Y13795D02*
Y16419D01*
X84631Y20355D02*
Y17731D01*
X86599D01*
X85943Y19043D01*
Y19699D01*
X86599Y20355D01*
X87911D01*
X88567Y19699D01*
Y18387D01*
X87911Y17731D01*
X84631Y21667D02*
X87255D01*
X88567Y22979D01*
X87255Y24291D01*
X84631D01*
X73804Y39386D02*
X76428D01*
X77740Y40698D01*
X76428Y42010D01*
X73804D01*
X77740Y43322D02*
Y44633D01*
Y43977D01*
X75116D01*
Y43322D01*
X77740Y46601D02*
X75116D01*
Y48569D01*
X75772Y49225D01*
X77740D01*
X85287Y41025D02*
X84631Y40369D01*
Y39057D01*
X85287Y38402D01*
X87911D01*
X88567Y39057D01*
Y40369D01*
X87911Y41025D01*
X86599D01*
Y39713D01*
X88567Y42337D02*
X84631D01*
X88567Y44961D01*
X84631D01*
Y46273D02*
X88567D01*
Y48241D01*
X87911Y48897D01*
X85287D01*
X84631Y48241D01*
Y46273D01*
X40158Y15880D02*
X42782D01*
X43307Y16405D01*
Y17454D01*
X42782Y17979D01*
X40158D01*
X43307Y21128D02*
Y19029D01*
X41208Y21128D01*
X40683D01*
X40158Y20603D01*
Y19554D01*
X40683Y19029D01*
X45670Y53019D02*
X48294D01*
X48818Y53544D01*
Y54593D01*
X48294Y55118D01*
X45670D01*
X48818Y56168D02*
Y57217D01*
Y56692D01*
X45670D01*
X46194Y56168D01*
X26772Y12992D02*
Y11943D01*
Y12467D01*
X29396D01*
X29921Y11943D01*
Y11418D01*
X29396Y10893D01*
X29921Y14042D02*
Y15091D01*
Y14566D01*
X26772D01*
X27297Y14042D01*
X41470Y6562D02*
X40945Y6037D01*
Y4988D01*
X41470Y4463D01*
X43569D01*
X44094Y4988D01*
Y6037D01*
X43569Y6562D01*
X40945Y9710D02*
X41470Y8661D01*
X42520Y7611D01*
X43569D01*
X44094Y8136D01*
Y9186D01*
X43569Y9710D01*
X43044D01*
X42520Y9186D01*
Y7611D01*
X41076Y28215D02*
X40552Y27691D01*
Y26641D01*
X41076Y26116D01*
X43176D01*
X43700Y26641D01*
Y27691D01*
X43176Y28215D01*
X40552Y31364D02*
Y29265D01*
X42126D01*
X41601Y30314D01*
Y30839D01*
X42126Y31364D01*
X43176D01*
X43700Y30839D01*
Y29790D01*
X43176Y29265D01*
X63124Y28215D02*
X62599Y27691D01*
Y26641D01*
X63124Y26116D01*
X65223D01*
X65747Y26641D01*
Y27691D01*
X65223Y28215D01*
X65747Y30839D02*
X62599D01*
X64173Y29265D01*
Y31364D01*
X59458Y54361D02*
X58933Y53836D01*
Y52786D01*
X59458Y52262D01*
X61557D01*
X62081Y52786D01*
Y53836D01*
X61557Y54361D01*
X59458Y55410D02*
X58933Y55935D01*
Y56984D01*
X59458Y57509D01*
X59982D01*
X60507Y56984D01*
Y56460D01*
Y56984D01*
X61032Y57509D01*
X61557D01*
X62081Y56984D01*
Y55935D01*
X61557Y55410D01*
X54462Y54200D02*
X53938Y53675D01*
Y52625D01*
X54462Y52101D01*
X56561D01*
X57086Y52625D01*
Y53675D01*
X56561Y54200D01*
X57086Y57348D02*
Y55249D01*
X54987Y57348D01*
X54462D01*
X53938Y56823D01*
Y55774D01*
X54462Y55249D01*
X33202Y46063D02*
X32678Y45538D01*
Y44489D01*
X33202Y43964D01*
X35302D01*
X35826Y44489D01*
Y45538D01*
X35302Y46063D01*
X35826Y47113D02*
Y48162D01*
Y47637D01*
X32678D01*
X33202Y47113D01*
M02*
